<svg xmlns="http://www.w3.org/2000/svg" xmlns:xlink="http://www.w3.org/1999/xlink" viewBox="0 0 244.21 244.21"><defs><style>.cls-1{fill:url(#linear-gradient);}.cls-2{fill:url(#linear-gradient-2);}.cls-3{fill:url(#linear-gradient-3);}.cls-4{fill:url(#linear-gradient-4);}</style><linearGradient id="linear-gradient" x1="111.11" y1="3.43" x2="235.57" y2="139.8" gradientUnits="userSpaceOnUse"><stop offset="0.41" stop-color="#a9d47f"/><stop offset="0.49" stop-color="#89ae65"/><stop offset="0.59" stop-color="#6d8c4e"/><stop offset="0.69" stop-color="#57713c"/><stop offset="0.79" stop-color="#475e2f"/><stop offset="0.89" stop-color="#3e5328"/><stop offset="1" stop-color="#3b4f25"/></linearGradient><linearGradient id="linear-gradient-2" x1="239.07" y1="106.83" x2="101.64" y2="241.45" xlink:href="#linear-gradient"/><linearGradient id="linear-gradient-3" x1="3.87" y1="133.23" x2="137.09" y2="10.53" xlink:href="#linear-gradient"/><linearGradient id="linear-gradient-4" x1="141.67" y1="247.35" x2="2.84" y2="99.4" xlink:href="#linear-gradient"/></defs><g id="Layer_2" data-name="Layer 2"><g id="Layer_1-2" data-name="Layer 1"><path class="cls-1" d="M244.21,101.56v3c-3.1.39-6.16.85-9.2,1.42a159.69,159.69,0,0,0-39.55,12.7c-2.3,1.08-4.58,2.21-6.82,3.43a162.22,162.22,0,0,1-66.53-66c-1.2-2.22-2.35-4.43-3.46-6.72A159.82,159.82,0,0,1,105.53,9.26c-.6-3.06-1.07-6.14-1.48-9.26h39.07A124,124,0,0,0,244.21,101.56Z"/><path class="cls-2" d="M244.21,104.56v38A124,124,0,0,0,143.12,244.21h-3c-.41-3.14-.9-6.22-1.48-9.3a159.92,159.92,0,0,0-13.12-40.08c-1.11-2.26-2.26-4.5-3.45-6.7a162.07,162.07,0,0,1,66.53-66c2.24-1.22,4.52-2.35,6.82-3.43A159.69,159.69,0,0,1,235,106C238.05,105.41,241.11,105,244.21,104.56Z"/><path class="cls-3" d="M122.11,56.1a162.25,162.25,0,0,1-66.54,66c-2.24,1.21-4.52,2.34-6.82,3.43A159.57,159.57,0,0,1,9.39,138.19c-3.1.6-6.23,1.07-9.39,1.46V101.56A124,124,0,0,0,101.09,0h3c.41,3.12.88,6.2,1.48,9.26a159.82,159.82,0,0,0,13.12,40.12C119.76,51.67,120.91,53.88,122.11,56.1Z"/><path class="cls-4" d="M140.16,244.21H101.09A124,124,0,0,0,0,142.57v-2.92c3.16-.39,6.29-.86,9.39-1.46a159.57,159.57,0,0,0,39.36-12.65c2.3-1.09,4.58-2.22,6.82-3.43a162.09,162.09,0,0,1,66.54,66c1.19,2.2,2.34,4.44,3.45,6.7a159.92,159.92,0,0,1,13.12,40.08C139.26,238,139.75,241.07,140.16,244.21Z"/></g></g></svg>